  <svg
    width="32"
    height="33"
    viewBox="0 0 32 33"
    fill="none"
    xmlns="http://www.w3.org/2000/svg"
  >
    <rect
      x="7"
      y="11"
      width="23"
      height="22"
      rx="11"
      fill="#78B42C"
      fill-opacity="0.2"
    />
    <path
      d="M16 28C22.6274 28 28 22.6274 28 16C28 9.37258 22.6274 4 16 4C9.37258 4 4 9.37258 4 16C4 22.6274 9.37258 28 16 28Z"
      stroke="#78B42C"
      stroke-width="2"
      stroke-linecap="round"
      stroke-linejoin="round"
    />
    <path
      d="M16 23C19.866 23 23 19.866 23 16C23 12.134 19.866 9 16 9C12.134 9 9 12.134 9 16C9 19.866 12.134 23 16 23Z"
      stroke="#78B42C"
      stroke-width="2"
      stroke-linecap="round"
      stroke-linejoin="round"
    />
    <path
      d="M16 9V4"
      stroke="#78B42C"
      stroke-width="2"
      stroke-linecap="round"
      stroke-linejoin="round"
    />
    <path
      d="M11.0502 11.0503L7.51465 7.51472"
      stroke="#78B42C"
      stroke-width="2"
      stroke-linecap="round"
      stroke-linejoin="round"
    />
    <path
      d="M9 16H4"
      stroke="#78B42C"
      stroke-width="2"
      stroke-linecap="round"
      stroke-linejoin="round"
    />
    <path
      d="M11.0502 20.9497L7.51465 24.4853"
      stroke="#78B42C"
      stroke-width="2"
      stroke-linecap="round"
      stroke-linejoin="round"
    />
    <path
      d="M16 23V28"
      stroke="#78B42C"
      stroke-width="2"
      stroke-linecap="round"
      stroke-linejoin="round"
    />
    <path
      d="M20.9497 20.9497L24.4852 24.4853"
      stroke="#78B42C"
      stroke-width="2"
      stroke-linecap="round"
      stroke-linejoin="round"
    />
    <path
      d="M23 16H28"
      stroke="#78B42C"
      stroke-width="2"
      stroke-linecap="round"
      stroke-linejoin="round"
    />
    <path
      d="M20.9497 11.0503L24.4852 7.51472"
      stroke="#78B42C"
      stroke-width="2"
      stroke-linecap="round"
      stroke-linejoin="round"
    />
  </svg>